<?xml version="1.0" encoding="utf-8"?>
<!-- Generator: Adobe Illustrator 17.0.0, SVG Export Plug-In . SVG Version: 6.00 Build 0)  -->
<!DOCTYPE svg PUBLIC "-//W3C//DTD SVG 1.1//EN" "http://www.w3.org/Graphics/SVG/1.1/DTD/svg11.dtd">
<svg version="1.1" id="Layer_1" xmlns="http://www.w3.org/2000/svg" xmlns:xlink="http://www.w3.org/1999/xlink" x="0px" y="0px"
	 width="353px" height="164.509px" viewBox="0 0 353 164.509" enable-background="new 0 0 353 164.509" xml:space="preserve">
<g>
	<path fill="#FFFFFF" d="M9.954,103.733c-1.272-0.899-2.453-2.097-3.539-3.594c-0.973-1.274-1.916-2.931-2.837-4.971
		c-0.914-2.042-1.616-4.56-2.106-7.554c-0.26-1.497-0.483-3.576-0.673-6.234c-0.186-2.658-0.355-5.664-0.505-9.013
		c-0.15-3.351-0.263-6.945-0.336-10.785c-0.077-3.837-0.124-7.666-0.139-11.485c-0.022-3.819,0-7.525,0.055-11.119
		c0.055-3.596,0.15-6.825,0.282-9.69c0.132-2.863,0.3-5.26,0.505-7.189c0.205-1.927,0.457-3.135,0.757-3.622
		c0.6-0.974,1.357-1.686,2.278-2.135c0.914-0.448,1.814-0.541,2.691-0.28C7.266,16.324,8.052,16.971,8.747,18
		c0.691,1.029,1.093,2.517,1.207,4.465c0.073,0.974,0.066,2.603-0.029,4.887s-0.216,5.026-0.366,8.227
		c-0.146,3.201-0.314,6.739-0.505,10.615c-0.186,3.876-0.366,7.911-0.534,12.103c-0.168,4.194-0.278,8.435-0.336,12.721
		c-0.059,4.287-0.048,8.424,0.029,12.412c0.073,3.989,0.252,7.722,0.534,11.205C9.025,98.117,9.427,101.15,9.954,103.733z"/>
	<path fill="#FFFFFF" d="M53.648,60.936c0.227-0.336,0.45-0.523,0.673-0.561c0.227-0.037,0.402,0.018,0.534,0.168
		c0.132,0.15,0.216,0.336,0.256,0.561c0.037,0.225,0,0.413-0.117,0.561c-0.073,0.113-0.38,0.441-0.925,0.984
		c-0.545,0.543-1.261,1.179-2.161,1.91c-0.899,0.729-1.938,1.506-3.115,2.329c-1.185,0.825-2.446,1.583-3.795,2.276
		c-1.346,0.693-2.75,1.263-4.212,1.713c-1.459,0.448-2.918,0.673-4.38,0.673c-2.208,0-4.11-0.45-5.697-1.347
		c-1.594-0.899-2.903-2.022-3.934-3.369c-1.031-1.349-1.799-2.826-2.304-4.437c-0.505-1.611-0.757-3.126-0.757-4.55
		c0-1.459,0.282-3.031,0.845-4.717c0.559-1.686,1.393-3.247,2.497-4.689c1.104-1.441,2.479-2.64,4.128-3.594
		c1.645-0.954,3.539-1.433,5.675-1.433c1.196,0,2.289,0.188,3.283,0.563c0.991,0.375,1.861,0.87,2.611,1.488
		c0.75,0.618,1.338,1.32,1.77,2.106c0.431,0.786,0.68,1.591,0.761,2.415c0.11,1.197-0.029,2.358-0.424,3.481
		c-0.395,1.124-1.075,1.892-2.048,2.304c-0.417,0.261-0.899,0.393-1.463,0.393c-0.863,0-1.594-0.291-2.19-0.87
		c-0.6-0.581-0.896-1.302-0.896-2.163s0.296-1.591,0.896-2.19c0.596-0.598,1.327-0.899,2.19-0.899c0.75,0,1.422,0.263,2.022,0.786
		c-0.04-0.373-0.132-0.878-0.282-1.516c-0.15-0.636-0.431-1.263-0.841-1.881c-0.413-0.618-1.009-1.161-1.799-1.629
		c-0.782-0.468-1.836-0.702-3.145-0.702c-1.272,0-2.304,0.552-3.086,1.656c-0.79,1.106-1.324,2.492-1.602,4.157
		c-0.282,1.666-0.311,3.472-0.088,5.419c0.227,1.947,0.702,3.753,1.433,5.421c0.731,1.666,1.733,3.051,3.006,4.156
		c1.272,1.104,2.826,1.656,4.662,1.656c1.086,0,2.263-0.225,3.536-0.675c1.09-0.411,2.362-1.057,3.821-1.936
		C50.445,64.073,51.999,62.733,53.648,60.936z"/>
	<path fill="#FFFFFF" d="M73.587,51.389c-0.223,0.936-0.684,1.956-1.378,3.06c-0.691,1.104-1.485,2.199-2.384,3.285
		c-0.899,1.086-1.847,2.134-2.837,3.145c-0.995,1.011-1.879,1.892-2.669,2.64c0.75,1.199,1.675,2.172,2.779,2.921
		s2.406,1.123,3.905,1.123c1.086,0,2.267-0.225,3.539-0.675c1.086-0.411,2.358-1.057,3.817-1.936
		c1.463-0.879,3.013-2.219,4.666-4.017c0.219-0.336,0.446-0.523,0.673-0.561c0.223-0.037,0.402,0.018,0.534,0.168
		c0.132,0.15,0.212,0.336,0.249,0.561c0.037,0.225,0,0.413-0.11,0.561c-0.073,0.113-0.384,0.441-0.929,0.984
		c-0.541,0.543-1.261,1.179-2.161,1.91c-0.896,0.729-1.938,1.506-3.119,2.329c-1.177,0.825-2.443,1.583-3.788,2.276
		c-1.349,0.693-2.753,1.263-4.212,1.713c-1.463,0.448-2.922,0.673-4.38,0.673c-2.208,0-4.11-0.45-5.704-1.347
		c-1.587-0.899-2.9-2.022-3.927-3.369c-1.031-1.349-1.799-2.826-2.304-4.437c-0.505-1.611-0.761-3.126-0.761-4.55
		c0-1.459,0.282-3.031,0.845-4.717c0.559-1.686,1.393-3.247,2.497-4.689c1.104-1.441,2.479-2.64,4.132-3.594
		c1.645-0.954,3.536-1.433,5.667-1.433c1.726,0,3.108,0.254,4.161,0.759c1.046,0.506,1.832,1.152,2.355,1.938
		c0.527,0.786,0.834,1.647,0.929,2.583C73.766,49.629,73.737,50.528,73.587,51.389z M66.848,45.042
		c-1.272,0-2.315,0.572-3.119,1.713c-0.804,1.143-1.357,2.556-1.656,4.241c-0.3,1.684-0.336,3.51-0.11,5.476
		c0.219,1.965,0.709,3.79,1.455,5.476c0.79-0.675,1.649-1.45,2.585-2.331c0.936-0.879,1.817-1.797,2.64-2.751
		c0.823-0.954,1.547-1.91,2.161-2.865c0.622-0.954,0.987-1.843,1.097-2.667c0.186-1.161,0.168-2.143-0.059-2.949
		c-0.223-0.804-0.578-1.45-1.064-1.938c-0.486-0.486-1.079-0.841-1.77-1.066S67.594,45.042,66.848,45.042z"/>
	<path fill="#FFFFFF" d="M131.94,19.039c2.245,0,4.585,0.441,7.02,1.32c2.435,0.879,4.775,2.115,7.02,3.706
		c2.245,1.592,4.344,3.492,6.289,5.7c1.945,2.21,3.558,4.625,4.83,7.245c1.272,2.622,2.135,5.402,2.585,8.34
		c0.446,2.94,0.314,5.964-0.395,9.072s-2.084,6.232-4.124,9.379c-2.044,3.145-4.9,6.216-8.567,9.211
		c-2.358,1.947-4.786,3.435-7.273,4.465c-2.494,1.029-4.991,1.713-7.499,2.049c-2.508,0.338-4.991,0.375-7.441,0.113
		c-2.453-0.263-4.841-0.711-7.159-1.347c-0.037,0.448-0.168,0.804-0.395,1.066s-0.497,0.384-0.812,0.366
		c-0.322-0.02-0.658-0.216-1.013-0.591c-0.355-0.375-0.647-0.993-0.87-1.852c-2.995-1.049-5.766-2.267-8.311-3.651
		c-2.545-1.386-4.757-2.715-6.629-3.987c-2.208-1.497-4.194-3.015-5.953-4.55c0-0.411,0.077-0.729,0.223-0.954
		c0.113-0.186,0.3-0.28,0.563-0.28c0.263,0,0.655,0.205,1.177,0.616c0.336,0.302,1.002,0.881,1.996,1.742
		c0.991,0.861,2.274,1.825,3.847,2.892c1.572,1.068,3.426,2.163,5.558,3.285c2.135,1.123,4.534,2.115,7.189,2.976
		c-0.11-1.161-0.176-2.949-0.194-5.364c-0.018-2.415-0.018-5.167,0-8.254c0.018-3.09,0.055-6.357,0.113-9.801
		c0.055-3.444,0.11-6.768,0.168-9.969c0.055-3.201,0.11-6.13,0.168-8.79c0.055-2.658,0.102-4.735,0.139-6.234
		c-3.817,0-7.796,0.066-11.935,0.197c-4.135,0.132-8.454,0.197-12.944,0.197c-1.163,0-2.362-0.177-3.598-0.534
		c-1.236-0.357-2.421-0.804-3.561-1.349c-1.144-0.541-2.172-1.15-3.093-1.825c-0.914-0.675-1.653-1.329-2.216-1.965
		s-0.878-1.208-0.958-1.713c-0.073-0.506,0.168-0.87,0.731-1.095c0.413-0.15,1.528-0.272,3.342-0.366
		c1.817-0.093,4.055-0.159,6.713-0.196c2.658-0.038,5.624-0.038,8.9,0c3.276,0.037,6.6,0.075,9.967,0.112
		C113.405,18.571,122.207,18.777,131.94,19.039z M128.627,77.728c3.181,0,6.099-0.739,8.761-2.218
		c2.658-1.479,4.958-3.417,6.907-5.814c1.949-2.395,3.51-5.101,4.691-8.115c1.177-3.013,1.887-6.055,2.135-9.126
		c0.241-3.07-0.022-6.017-0.79-8.845c-0.768-2.826-2.106-5.251-4.015-7.273c-1.722-1.797-3.642-3.285-5.755-4.466
		c-2.117-1.179-4.402-2.113-6.852-2.808c-2.453-0.691-5.075-1.187-7.861-1.488c-2.794-0.298-5.722-0.486-8.79-0.561
		c0,1.611-0.011,3.783-0.029,6.516c-0.022,2.733-0.037,5.737-0.059,9.013c-0.018,3.278-0.037,6.666-0.055,10.167
		c-0.018,3.501-0.026,6.814-0.026,9.94s0.007,5.898,0.026,8.313c0.018,2.415,0.066,4.183,0.143,5.307
		c1.755,0.448,3.591,0.804,5.503,1.066C124.47,77.597,126.492,77.728,128.627,77.728z"/>
	<path fill="#FFFFFF" d="M205.793,60.936c0.527,0,0.79,0.263,0.79,0.786c0,0.038-0.168,0.3-0.505,0.786
		c-0.34,0.488-0.819,1.095-1.433,1.826c-0.622,0.729-1.349,1.516-2.194,2.358c-0.841,0.843-1.784,1.62-2.834,2.331
		c-1.049,0.711-2.161,1.311-3.342,1.797s-2.406,0.729-3.678,0.729c-1.985,0-3.624-0.477-4.914-1.432
		c-1.291-0.954-2.329-2.172-3.119-3.651c-0.782-1.479-1.375-3.108-1.77-4.887c-0.391-1.777-0.702-3.472-0.925-5.082
		c-0.223-1.609-0.42-3.033-0.589-4.269c-0.168-1.234-0.402-2.059-0.702-2.47c-0.227-0.3-0.563-0.534-1.009-0.702
		c-0.453-0.168-0.936-0.3-1.463-0.393c-0.527-0.093-1.038-0.177-1.543-0.252c-0.505-0.075-0.947-0.17-1.324-0.282
		c-0.223,0-0.446-0.057-0.673-0.168c-0.186,0.898-0.552,2.031-1.093,3.397c-0.545,1.368-1.181,2.772-1.912,4.212
		c-0.728,1.442-1.495,2.837-2.3,4.185c-0.808,1.347-1.565,2.472-2.278,3.369c-0.219,0.263-0.457,0.431-0.702,0.506
		c-0.241,0.075-0.439,0.055-0.585-0.057c-0.154-0.113-0.234-0.3-0.256-0.561c-0.015-0.261,0.102-0.581,0.366-0.956
		c1.572-2.245,2.826-4.201,3.766-5.869c0.932-1.666,1.664-3.088,2.187-4.267c0.527-1.181,0.881-2.115,1.068-2.808
		c0.19-0.693,0.318-1.188,0.395-1.49c-0.563-0.186-1.097-0.355-1.602-0.505s-0.852-0.318-1.038-0.506
		c-1.049-0.598-1.572-1.534-1.572-2.808c0-0.898,0.307-1.666,0.925-2.302c0.618-0.636,1.378-0.954,2.274-0.954
		c0.823,0,1.536,0.261,2.135,0.786c0.596,0.525,0.954,1.161,1.064,1.909c0.04,0.188,0.077,0.357,0.117,0.506
		c0.037,0.336,0.037,0.729,0,1.179c0.782,0.225,1.843,0.384,3.174,0.477c1.324,0.093,2.655,0.188,3.986,0.282
		c1.327,0.093,2.538,0.234,3.62,0.42c1.09,0.188,1.799,0.505,2.135,0.954c0.336,0.488,0.647,1.32,0.929,2.499
		c0.278,1.179,0.548,2.499,0.812,3.96c0.263,1.461,0.563,2.967,0.899,4.521s0.75,2.976,1.236,4.269
		c0.486,1.291,1.075,2.358,1.77,3.201c0.695,0.843,1.543,1.263,2.556,1.263c0.75,0,1.517-0.159,2.3-0.477
		c0.79-0.318,1.499-0.684,2.135-1.095c0.75-0.45,1.477-0.974,2.194-1.572l1.682-2.19c0.073-0.15,0.197-0.272,0.366-0.366
		C205.486,60.984,205.647,60.936,205.793,60.936z"/>
	<path fill="#FFFFFF" d="M225.004,51.389c-0.227,0.936-0.684,1.956-1.375,3.06c-0.695,1.104-1.492,2.199-2.391,3.285
		c-0.896,1.086-1.843,2.134-2.834,3.145c-0.991,1.011-1.883,1.892-2.666,2.64c0.746,1.199,1.675,2.172,2.779,2.921
		s2.406,1.123,3.901,1.123c1.086,0,2.263-0.225,3.539-0.675c1.086-0.411,2.358-1.057,3.821-1.936
		c1.459-0.879,3.013-2.219,4.658-4.017c0.227-0.336,0.45-0.523,0.673-0.561c0.227-0.037,0.402,0.018,0.534,0.168
		c0.132,0.15,0.219,0.336,0.256,0.561c0.037,0.225,0,0.413-0.113,0.561c-0.077,0.113-0.384,0.441-0.925,0.984
		c-0.545,0.543-1.265,1.179-2.165,1.91c-0.899,0.729-1.938,1.506-3.115,2.329c-1.181,0.825-2.443,1.583-3.792,2.276
		s-2.753,1.263-4.212,1.713c-1.459,0.448-2.921,0.673-4.38,0.673c-2.212,0-4.11-0.45-5.7-1.347
		c-1.594-0.899-2.903-2.022-3.934-3.369c-1.027-1.349-1.795-2.826-2.3-4.437c-0.508-1.611-0.757-3.126-0.757-4.55
		c0-1.459,0.278-3.031,0.841-4.717c0.563-1.686,1.393-3.247,2.501-4.689c1.101-1.441,2.479-2.64,4.124-3.594
		c1.649-0.954,3.539-1.433,5.675-1.433c1.719,0,3.108,0.254,4.154,0.759c1.049,0.506,1.836,1.152,2.362,1.938
		c0.519,0.786,0.83,1.647,0.925,2.583C225.179,49.629,225.15,50.528,225.004,51.389z M218.261,45.042
		c-1.272,0-2.311,0.572-3.115,1.713c-0.804,1.143-1.357,2.556-1.656,4.241c-0.3,1.684-0.336,3.51-0.113,5.476
		c0.227,1.965,0.709,3.79,1.463,5.476c0.782-0.675,1.645-1.45,2.581-2.331c0.936-0.879,1.817-1.797,2.64-2.751
		c0.823-0.954,1.543-1.91,2.165-2.865c0.614-0.954,0.98-1.843,1.093-2.667c0.186-1.161,0.168-2.143-0.055-2.949
		c-0.227-0.804-0.581-1.45-1.068-1.938c-0.49-0.486-1.075-0.841-1.77-1.066S219.015,45.042,218.261,45.042z"/>
	<path fill="#FFFFFF" d="M275.156,60.936c0.527,0,0.79,0.263,0.79,0.786c0,0.038-0.154,0.3-0.453,0.786
		c-0.3,0.488-0.728,1.095-1.291,1.826c-0.559,0.729-1.247,1.516-2.051,2.358c-0.804,0.843-1.693,1.62-2.666,2.331
		c-0.976,0.711-2.04,1.311-3.199,1.797c-1.163,0.486-2.38,0.729-3.653,0.729c-1.349,0-2.556-0.439-3.624-1.32
		c-1.068-0.879-1.982-1.861-2.75-2.949c-0.768-1.084-1.368-2.086-1.799-3.004c-0.431-0.918-0.665-1.431-0.702-1.545
		c-0.073,0.113-0.384,0.627-0.925,1.545c-0.545,0.918-1.283,1.92-2.219,3.004c-0.936,1.088-2.04,2.07-3.313,2.949
		c-1.272,0.881-2.677,1.32-4.212,1.32c-1.649,0-3.079-0.327-4.296-0.982c-1.218-0.656-2.19-1.545-2.921-2.669
		c-0.731-1.123-1.218-2.422-1.463-3.903c-0.241-1.477-0.223-3.033,0.059-4.66c0.282-1.629,0.834-3.276,1.656-4.944
		c0.823-1.666,1.927-3.265,3.316-4.801c1.495-1.647,3.057-2.883,4.688-3.708c1.631-0.823,3.229-1.384,4.801-1.684
		c1.422-0.263,2.761-0.347,4.018-0.254c1.251,0.095,2.329,0.272,3.225,0.534c0.899,0.263,1.576,0.572,2.026,0.927
		c0.446,0.357,0.578,0.665,0.391,0.927c-0.223,0.3-0.45,0.431-0.673,0.393c-0.223-0.037-0.534-0.141-0.925-0.309
		c-0.395-0.168-0.921-0.346-1.572-0.534c-0.658-0.186-1.547-0.28-2.669-0.28c-1.049,0-2.106,0.234-3.174,0.702
		c-1.068,0.468-2.077,1.104-3.035,1.909c-0.951,0.806-1.806,1.751-2.552,2.836c-0.753,1.088-1.294,2.229-1.631,3.426
		c-0.527,1.797-0.709,3.38-0.563,4.746c0.154,1.368,0.497,2.528,1.038,3.483c0.545,0.954,1.199,1.676,1.967,2.161
		c0.768,0.488,1.492,0.731,2.165,0.731c1.236,0,2.263-0.375,3.086-1.124c0.826-0.748,1.506-1.675,2.051-2.779
		c0.545-1.104,0.984-2.304,1.32-3.594c0.336-1.293,0.644-2.49,0.929-3.594c0.278-1.104,0.57-2.022,0.87-2.753
		c0.3-0.729,0.691-1.095,1.177-1.095c0.486,0,0.954,0.404,1.404,1.208s0.907,1.797,1.375,2.976s0.965,2.472,1.492,3.876
		c0.523,1.404,1.112,2.695,1.77,3.874c0.651,1.179,1.382,2.172,2.187,2.976c0.804,0.806,1.715,1.208,2.728,1.208
		c0.746,0,1.441-0.159,2.077-0.477c0.636-0.318,1.196-0.684,1.682-1.095c0.527-0.45,1.013-0.974,1.463-1.572l1.74-2.19
		C274.465,61.104,274.746,60.936,275.156,60.936z"/>
	<path fill="#FFFFFF" d="M272.516,54.197c-0.223-2.059-0.128-3.912,0.285-5.561c0.186-0.709,0.446-1.404,0.783-2.077
		c0.336-0.675,0.804-1.272,1.404-1.797c0.6-0.525,1.324-0.945,2.165-1.263c0.841-0.318,1.861-0.479,3.06-0.479
		c1.609,0,2.64,0.45,3.09,1.349c0.446,0.898,0.548,2.04,0.307,3.426s-0.746,2.92-1.514,4.605c-0.768,1.684-1.594,3.294-2.472,4.83
		c-0.881,1.536-1.715,2.911-2.501,4.126c-0.786,1.218-1.331,2.051-1.631,2.501c-0.219-0.075-0.362-0.177-0.417-0.309
		c-0.059-0.132-0.095-0.272-0.113-0.422c-0.018-0.148-0.055-0.309-0.113-0.477c-0.059-0.168-0.161-0.327-0.307-0.477
		c0.483-0.525,1.112-1.329,1.879-2.415s1.536-2.293,2.304-3.622c0.768-1.329,1.463-2.697,2.077-4.101
		c0.618-1.404,1.049-2.677,1.294-3.819c0.241-1.141,0.223-2.079-0.059-2.808c-0.278-0.729-0.943-1.095-1.993-1.095
		c-1.049,0-1.667,0.486-1.854,1.461c-0.19,0.973-0.102,2.181,0.252,3.622c0.355,1.442,0.918,3.006,1.686,4.689
		c0.768,1.686,1.58,3.249,2.443,4.689c0.863,1.442,1.686,2.649,2.472,3.624c0.786,0.974,1.404,1.461,1.854,1.461
		s0.907-0.516,1.375-1.545s0.962-2.313,1.488-3.848c0.527-1.534,1.068-3.201,1.631-4.998c0.559-1.797,1.141-3.463,1.74-4.998
		c0.6-1.534,1.225-2.817,1.879-3.847c0.658-1.029,1.338-1.545,2.051-1.545h0.055c0.073,0,0.15,0.009,0.227,0.027
		c0.073,0.02,0.146,0.029,0.223,0.029c0.75,0.188,1.433,0.768,2.051,1.74c0.618,0.974,1.188,2.145,1.711,3.51
		c0.527,1.368,1.013,2.837,1.463,4.41c0.446,1.572,0.899,3.088,1.346,4.549c0.6,1.797,1.192,3.324,1.77,4.578
		c0.581,1.254,1.188,1.9,1.828,1.938h0.11c0.373-0.075,0.761-0.459,1.152-1.152s0.757-1.452,1.093-2.274
		c0.413-0.936,0.79-1.985,1.126-3.146l0.563-1.965c0.41-1.422,0.83-2.865,1.261-4.324c0.428-1.461,0.889-2.781,1.375-3.96
		s1.02-2.134,1.602-2.865c0.581-0.729,1.207-1.095,1.883-1.095c0.819,0,1.521,0.591,2.106,1.77c0.578,1.179,1.104,2.64,1.572,4.38
		c0.468,1.74,0.925,3.642,1.375,5.7c0.45,2.06,0.943,3.96,1.488,5.7c0.545,1.74,1.17,3.201,1.883,4.38
		c0.709,1.179,1.572,1.77,2.581,1.77c0.75,0,1.441-0.159,2.077-0.477c0.636-0.318,1.199-0.684,1.686-1.095
		c0.523-0.45,1.013-0.974,1.459-1.572l1.689-2.19c0.073-0.15,0.194-0.272,0.362-0.366c0.172-0.093,0.347-0.141,0.534-0.141
		c0.486,0,0.731,0.263,0.731,0.786c0,0.038-0.15,0.3-0.45,0.786c-0.3,0.488-0.731,1.095-1.294,1.826
		c-0.559,0.729-1.236,1.516-2.018,2.358c-0.79,0.843-1.675,1.62-2.669,2.331c-0.995,0.711-2.059,1.311-3.203,1.797
		c-1.141,0.486-2.347,0.729-3.62,0.729c-1.386,0-2.567-0.411-3.539-1.236c-0.973-0.823-1.799-1.843-2.472-3.06
		c-0.673-1.216-1.214-2.545-1.627-3.987c-0.413-1.441-0.757-2.77-1.042-3.987c-0.278-1.216-0.512-2.238-0.702-3.06
		c-0.183-0.825-0.391-1.236-0.614-1.236c-0.227,0-0.497,0.411-0.815,1.236c-0.318,0.823-0.684,1.845-1.093,3.06
		c-0.417,1.218-0.899,2.547-1.463,3.987c-0.563,1.442-1.177,2.772-1.85,3.987c-0.676,1.218-1.433,2.238-2.278,3.06
		c-0.841,0.825-1.766,1.236-2.779,1.236h-0.508h-0.051h-0.395c-1.272,0-2.369-0.42-3.287-1.263c-0.918-0.843-1.686-1.9-2.3-3.174
		c-0.622-1.272-1.133-2.658-1.547-4.156c-0.413-1.497-0.757-2.883-1.038-4.156c-0.282-1.272-0.534-2.331-0.757-3.174
		c-0.227-0.843-0.453-1.263-0.676-1.263c-0.26,0-0.523,0.42-0.786,1.263s-0.57,1.901-0.929,3.174
		c-0.351,1.272-0.782,2.658-1.287,4.156c-0.508,1.497-1.119,2.883-1.828,4.156c-0.709,1.274-1.554,2.331-2.527,3.174
		c-0.976,0.843-2.117,1.263-3.426,1.263c-1.046,0-1.993-0.243-2.837-0.729c-0.841-0.486-1.602-1.143-2.274-1.965
		c-0.673-0.825-1.254-1.751-1.74-2.781c-0.486-1.029-0.918-2.086-1.291-3.174C273.569,60.357,272.932,57.453,272.516,54.197z"/>
	<path fill="#FFFFFF" d="M350.584,61.05c0.373,0.448,0.841,1.216,1.404,2.302c0.559,1.086,0.932,2.322,1.123,3.708
		c0.186,1.384,0.044,2.854-0.421,4.408c-0.472,1.554-1.547,3.024-3.229,4.41c-1.686,1.384-3.313,2.19-4.885,2.415
		c-1.576,0.223-3.017,0.102-4.329-0.366c-1.309-0.468-2.472-1.17-3.481-2.106c-1.009-0.936-1.799-1.854-2.358-2.751
		c-0.223-0.413-0.296-0.713-0.223-0.899c0.073-0.188,0.212-0.3,0.42-0.336c0.208-0.038,0.428,0,0.673,0.112
		c0.245,0.113,0.406,0.282,0.479,0.506c0.6,1.197,1.243,2.011,1.938,2.443c0.691,0.43,1.353,0.655,1.993,0.675
		c0.636,0.018,1.188-0.084,1.656-0.309s0.775-0.413,0.929-0.563c0.11-0.15,0.351-0.384,0.728-0.702
		c0.377-0.318,0.713-0.777,1.013-1.375c0.3-0.6,0.505-1.357,0.614-2.274c0.117-0.918-0.037-2.031-0.446-3.342
		c-0.45-1.422-1.163-2.751-2.135-3.987c-0.973-1.236-1.985-2.415-3.035-3.539l-1.74,2.64c-0.263,0.413-0.636,0.488-1.119,0.225
		c-0.417-0.336-0.49-0.711-0.227-1.123l1.967-2.976c-0.64-0.675-1.236-1.349-1.799-2.022c-0.563-0.675-1.009-1.349-1.346-2.022
		c-0.49-0.936-0.874-2.051-1.155-3.342c-0.278-1.293-0.223-2.517,0.168-3.678c0.395-1.161,1.247-2.143,2.56-2.949
		c1.309-0.804,3.349-1.208,6.121-1.208c1.496,0,2.545,0.263,3.145,0.786c0.6,0.527,0.878,1.236,0.841,2.135
		c-0.037,0.898-0.329,1.965-0.87,3.201c-0.541,1.236-1.188,2.583-1.938,4.044c0.673,0.673,1.338,1.375,1.996,2.106
		c0.651,0.729,1.287,1.452,1.909,2.161c0.614,0.713,1.185,1.377,1.711,1.995C349.762,60.066,350.208,60.6,350.584,61.05z
		 M342.273,44.312c-0.753,0-1.324,0.225-1.715,0.675c-0.391,0.448-0.6,1.038-0.618,1.768c-0.018,0.731,0.168,1.536,0.563,2.415
		c0.391,0.881,1.002,1.77,1.825,2.667c0.636-1.084,1.159-2.086,1.572-3.004c0.413-0.918,0.647-1.713,0.702-2.388
		c0.055-0.673-0.091-1.197-0.45-1.572C343.794,44.5,343.173,44.312,342.273,44.312z"/>
</g>
<g>
	<path fill="#FFFFFF" d="M91.133,138.782c0-4.499-0.143-5.303-2.086-5.54l-1.515-0.189c-0.332-0.237-0.332-0.995,0.05-1.184
		c2.648-0.237,5.917-0.38,10.555-0.38c2.938,0,5.729,0.237,7.907,1.421c2.274,1.183,3.932,3.313,3.932,6.629
		c0,4.497-3.55,6.958-5.917,7.907c-0.239,0.283,0,0.758,0.235,1.135c3.786,6.108,6.295,9.896,9.514,12.594
		c0.806,0.709,1.989,1.23,3.269,1.326c0.235,0.094,0.285,0.472,0.046,0.661c-0.424,0.143-1.184,0.237-2.082,0.237
		c-4.025,0-6.438-1.183-9.8-5.966c-1.234-1.752-3.173-5.017-4.641-7.149c-0.709-1.041-1.469-1.515-3.362-1.515
		c-2.132,0-2.224,0.048-2.224,1.043v5.966c0,4.971,0.093,5.538,2.841,5.917l0.995,0.143c0.281,0.235,0.189,1.041-0.096,1.183
		c-2.132-0.094-3.739-0.143-5.632-0.143c-1.989,0-3.693,0.048-5.921,0.143c-0.281-0.143-0.378-0.852-0.093-1.183l1.183-0.143
		c2.745-0.332,2.841-0.946,2.841-5.917V138.782z M95.015,145.552c0,0.852,0,1.372,0.143,1.563c0.143,0.141,0.852,0.237,3.265,0.237
		c1.704,0,3.504-0.191,4.877-1.232c1.28-0.995,2.367-2.652,2.367-5.871c0-3.739-2.321-7.292-7.575-7.292
		c-2.934,0-3.076,0.191-3.076,1.515V145.552z"/>
	<path fill="#FFFFFF" d="M121.684,138.734c0-4.923-0.093-5.634-2.887-5.966l-0.756-0.094c-0.285-0.189-0.193-1.041,0.093-1.184
		c2.035,0.094,3.647,0.143,5.586,0.143h8.901c3.03,0,5.825,0,6.392-0.143c0.285,0.806,0.571,4.214,0.759,6.297
		c-0.189,0.283-0.948,0.378-1.184,0.094c-0.713-2.224-1.137-3.882-3.601-4.497c-0.995-0.237-2.51-0.285-4.591-0.285h-3.408
		c-1.423,0-1.423,0.094-1.423,1.895v9.468c0,1.326,0.143,1.326,1.565,1.326h2.745c1.989,0,3.454-0.094,4.025-0.283
		c0.567-0.191,0.898-0.474,1.137-1.658l0.378-1.941c0.235-0.285,1.041-0.285,1.23,0.046c0,1.137-0.189,2.984-0.189,4.782
		c0,1.704,0.189,3.504,0.189,4.545c-0.189,0.332-0.995,0.332-1.23,0.048l-0.428-1.847c-0.189-0.852-0.52-1.563-1.465-1.8
		c-0.663-0.189-1.8-0.235-3.647-0.235h-2.745c-1.423,0-1.565,0.046-1.565,1.278v6.675c0,2.51,0.143,4.119,0.902,4.925
		c0.567,0.567,1.561,1.089,5.729,1.089c3.643,0,5.019-0.191,6.06-0.711c0.852-0.474,2.128-2.13,3.362-4.591
		c0.332-0.237,0.995-0.096,1.184,0.332c-0.332,1.656-1.515,5.301-2.132,6.581c-4.26-0.094-8.473-0.143-12.687-0.143h-4.264
		c-2.035,0-3.643,0.048-6.438,0.143c-0.285-0.143-0.378-0.9-0.093-1.183l1.561-0.143c2.699-0.237,2.934-0.946,2.934-5.917V138.734z"
		/>
	<path fill="#FFFFFF" d="M151.337,134.9c3.458-2.699,7.86-4.025,12.783-4.025c2.556,0,6.156,0.52,8.381,1.135
		c0.567,0.143,0.898,0.237,1.326,0.191c0.046,1.087,0.281,4.071,0.663,6.958c-0.239,0.332-0.948,0.38-1.28,0.094
		c-0.709-3.219-2.841-6.912-9.707-6.912c-7.244,0-13.396,4.593-13.396,14.393c0,9.942,6.295,15.436,14.059,15.436
		c6.11,0,8.809-3.978,9.896-6.771c0.332-0.237,1.041-0.143,1.23,0.189c-0.332,2.463-1.561,5.588-2.271,6.486
		c-0.567,0.096-1.137,0.285-1.658,0.474c-1.041,0.38-4.449,1.089-7.479,1.089c-4.264,0-8.335-0.852-11.789-3.173
		c-3.79-2.604-6.723-6.912-6.723-13.018C145.374,142.19,147.741,137.693,151.337,134.9z"/>
	<path fill="#FFFFFF" d="M182.32,138.828c0-5.017-0.096-5.823-2.887-6.06l-1.183-0.094c-0.285-0.189-0.193-1.041,0.093-1.184
		c2.367,0.094,3.978,0.143,5.968,0.143c1.893,0,3.5-0.048,5.867-0.143c0.285,0.143,0.382,0.995,0.096,1.184l-1.184,0.094
		c-2.795,0.237-2.887,1.043-2.887,6.06v16.854c0,5.019,0.093,5.682,2.887,6.014l1.184,0.143c0.285,0.189,0.189,1.041-0.096,1.183
		c-2.367-0.094-3.975-0.143-5.867-0.143c-1.989,0-3.601,0.048-5.968,0.143c-0.285-0.143-0.378-0.9-0.093-1.183l1.183-0.143
		c2.791-0.332,2.887-0.995,2.887-6.014V138.828z"/>
	<path fill="#FFFFFF" d="M202.212,155.779c0,4.971,0.096,5.586,3.126,5.917l1.276,0.143c0.285,0.235,0.193,1.041-0.093,1.183
		c-2.699-0.094-4.26-0.143-6.156-0.143c-1.985,0-3.693,0.048-5.775,0.143c-0.285-0.143-0.378-0.9-0.096-1.183l0.995-0.143
		c2.749-0.38,2.841-0.946,2.841-5.917v-17.471c0-4.025-0.093-4.828-2.224-5.066l-1.704-0.189c-0.332-0.285-0.285-0.995,0.093-1.184
		c2.51-0.332,5.447-0.38,9.375-0.38c3.932,0,6.866,0.52,9.09,1.895c2.178,1.372,3.79,3.834,3.79,7.101
		c0,4.356-2.699,6.534-4.734,7.527c-2.086,0.995-4.595,1.421-6.534,1.421c-0.332-0.141-0.332-0.852-0.05-0.946
		c5.116-0.946,6.962-3.836,6.962-7.955c0-4.591-2.699-7.575-7.621-7.575c-2.51,0-2.56,0.191-2.56,1.706V155.779z"/>
	<path fill="#FFFFFF" d="M223.77,138.734c0-4.923-0.096-5.634-2.887-5.966l-0.759-0.094c-0.285-0.189-0.189-1.041,0.096-1.184
		c2.035,0.094,3.643,0.143,5.586,0.143h8.901c3.03,0,5.821,0,6.392-0.143c0.281,0.806,0.567,4.214,0.756,6.297
		c-0.189,0.283-0.944,0.378-1.183,0.094c-0.709-2.224-1.137-3.882-3.597-4.497c-0.995-0.237-2.51-0.285-4.591-0.285h-3.412
		c-1.419,0-1.419,0.094-1.419,1.895v9.468c0,1.326,0.143,1.326,1.561,1.326h2.745c1.989,0,3.458-0.094,4.025-0.283
		c0.571-0.191,0.902-0.474,1.137-1.658l0.378-1.941c0.239-0.285,1.045-0.285,1.234,0.046c0,1.137-0.189,2.984-0.189,4.782
		c0,1.704,0.189,3.504,0.189,4.545c-0.189,0.332-0.995,0.332-1.234,0.048l-0.424-1.847c-0.189-0.852-0.52-1.563-1.469-1.8
		c-0.663-0.189-1.8-0.235-3.647-0.235h-2.745c-1.419,0-1.561,0.046-1.561,1.278v6.675c0,2.51,0.143,4.119,0.898,4.925
		c0.571,0.567,1.561,1.089,5.729,1.089c3.647,0,5.019-0.191,6.06-0.711c0.852-0.474,2.132-2.13,3.362-4.591
		c0.332-0.237,0.995-0.096,1.183,0.332c-0.332,1.656-1.515,5.301-2.128,6.581c-4.264-0.094-8.477-0.143-12.691-0.143h-4.26
		c-2.035,0-3.647,0.048-6.438,0.143c-0.285-0.143-0.382-0.9-0.096-1.183l1.561-0.143c2.699-0.237,2.938-0.946,2.938-5.917V138.734z"
		/>
	<path fill="#FFFFFF" d="M255.979,163.638c-3.978,0-6.488-1.232-7.386-1.752c-0.567-1.041-1.184-4.402-1.28-6.629
		c0.239-0.33,0.948-0.426,1.137-0.141c0.709,2.413,2.652,7.055,8.142,7.055c3.978,0,5.921-2.604,5.921-5.445
		c0-2.084-0.428-4.402-3.882-6.629l-4.499-2.936c-2.367-1.561-5.116-4.26-5.116-8.144c0-4.497,3.504-8.142,9.661-8.142
		c1.469,0,3.173,0.283,4.402,0.615c0.617,0.189,1.28,0.283,1.658,0.283c0.424,1.137,0.852,3.788,0.852,5.777
		c-0.189,0.283-0.948,0.426-1.184,0.143c-0.617-2.273-1.893-5.351-6.438-5.351c-4.641,0-5.636,3.078-5.636,5.256
		c0,2.745,2.274,4.734,4.025,5.823l3.789,2.367c2.98,1.847,5.918,4.593,5.918,9.09C266.063,160.087,262.131,163.638,255.979,163.638
		z"/>
</g>
</svg>
