<?xml version="1.0" encoding="utf-8"?>
<!-- Generator: Adobe Illustrator 17.0.0, SVG Export Plug-In . SVG Version: 6.00 Build 0)  -->
<!DOCTYPE svg PUBLIC "-//W3C//DTD SVG 1.1//EN" "http://www.w3.org/Graphics/SVG/1.1/DTD/svg11.dtd">
<svg version="1.1" id="Layer_1" xmlns="http://www.w3.org/2000/svg" xmlns:xlink="http://www.w3.org/1999/xlink" x="0px" y="0px"
	 width="428.951px" height="106.594px" viewBox="0 0 428.951 106.594" enable-background="new 0 0 428.951 106.594"
	 xml:space="preserve">
<g>
	<path fill="#FFFFFF" d="M4.532,27.458c0-0.79,0.281-1.465,0.843-2.028c0.562-0.562,1.238-0.843,2.028-0.843
		s1.465,0.281,2.028,0.843c0.562,0.562,0.843,1.238,0.843,2.028v51.678c0,0.79-0.281,1.465-0.843,2.028s-1.238,0.843-2.028,0.843
		s-1.465-0.281-2.028-0.843s-0.843-1.238-0.843-2.028V27.458z"/>
	<path fill="#FFFFFF" d="M63.603,70.738c0.79,0,1.465,0.281,2.028,0.843s0.843,1.238,0.843,2.028c0,0.79-0.275,1.459-0.825,2.01
		c-5.335,4.259-11.353,6.388-18.052,6.388c-7.919,0-14.684-2.805-20.295-8.416c-5.61-5.61-8.416-12.375-8.416-20.295
		s2.805-14.684,8.416-20.295s12.375-8.416,20.295-8.416c6.843,0,12.932,2.189,18.267,6.567c0.55,0.574,0.825,1.256,0.825,2.046
		c0,0.79-0.281,1.465-0.843,2.028c-0.562,0.562-1.238,0.843-2.028,0.843c-0.79,0-1.471-0.287-2.046-0.861
		c-4.043-3.254-8.769-4.881-14.176-4.881c-6.34,0-11.753,2.243-16.239,6.729s-6.729,9.899-6.729,16.239s2.243,11.753,6.729,16.239
		s9.899,6.729,16.239,6.729c5.479,0,10.264-1.675,14.355-5.024C62.431,70.906,62.981,70.738,63.603,70.738z"/>
	<path fill="#FFFFFF" d="M74.872,24.587h34.452c0.79,0,1.465,0.281,2.028,0.843c0.562,0.562,0.843,1.238,0.843,2.028
		s-0.281,1.465-0.843,2.028c-0.562,0.562-1.238,0.843-2.028,0.843H77.743v20.097h22.968c0.79,0,1.465,0.281,2.028,0.843
		c0.562,0.562,0.843,1.238,0.843,2.028s-0.281,1.465-0.843,2.028c-0.562,0.562-1.238,0.843-2.028,0.843H77.743v20.097h31.581
		c0.79,0,1.465,0.281,2.028,0.843c0.562,0.562,0.843,1.238,0.843,2.028c0,0.79-0.281,1.465-0.843,2.028
		c-0.562,0.562-1.238,0.843-2.028,0.843H74.872c-0.79,0-1.465-0.281-2.028-0.843s-0.843-1.238-0.843-2.028V27.458
		c0-0.79,0.281-1.465,0.843-2.028C73.407,24.868,74.083,24.587,74.872,24.587z"/>
	<path fill="#FFFFFF" d="M153.825,24.587c7.919,0,14.684,2.805,20.295,8.416c5.61,5.61,8.416,12.375,8.416,20.295
		s-2.805,14.684-8.416,20.295c-5.61,5.61-12.375,8.416-20.295,8.416h-11.484c-0.79,0-1.465-0.281-2.028-0.843
		s-0.843-1.238-0.843-2.028V27.458c0-0.79,0.281-1.465,0.843-2.028c0.562-0.562,1.238-0.843,2.028-0.843H153.825z M153.825,76.265
		c6.34,0,11.753-2.243,16.239-6.729s6.729-9.899,6.729-16.239s-2.243-11.753-6.729-16.239s-9.899-6.729-16.239-6.729h-8.613v45.936
		H153.825z"/>
	<path fill="#FFFFFF" d="M191.148,24.587h14.355c4.761,0,8.822,1.681,12.184,5.042c3.361,3.361,5.042,7.423,5.042,12.184
		s-1.675,8.816-5.024,12.166c-1.555,1.555-3.242,2.739-5.06,3.553l12.489,20.025c0.311,0.455,0.467,0.981,0.467,1.579
		c0,0.79-0.281,1.465-0.843,2.028s-1.238,0.843-2.028,0.843c-1.029,0-1.866-0.49-2.512-1.471L206.76,59.003
		c-0.407,0.024-0.825,0.036-1.256,0.036h-11.484v20.097c0,0.79-0.281,1.465-0.843,2.028s-1.238,0.843-2.028,0.843
		c-0.79,0-1.465-0.281-2.028-0.843s-0.843-1.238-0.843-2.028V27.458c0-0.79,0.281-1.465,0.843-2.028
		C189.683,24.868,190.359,24.587,191.148,24.587z M194.019,30.329v22.968h11.484c3.182,0,5.892-1.119,8.129-3.356
		s3.355-4.947,3.355-8.129s-1.118-5.892-3.355-8.129c-2.237-2.237-4.947-3.356-8.129-3.356H194.019z"/>
	<path fill="#FFFFFF" d="M234.214,24.587h34.452c0.79,0,1.465,0.281,2.028,0.843c0.562,0.562,0.843,1.238,0.843,2.028
		s-0.281,1.465-0.843,2.028c-0.562,0.562-1.238,0.843-2.028,0.843h-31.581v20.097h22.968c0.79,0,1.465,0.281,2.028,0.843
		c0.562,0.562,0.843,1.238,0.843,2.028s-0.281,1.465-0.843,2.028c-0.562,0.562-1.238,0.843-2.028,0.843h-22.968v20.097h31.581
		c0.79,0,1.465,0.281,2.028,0.843c0.562,0.562,0.843,1.238,0.843,2.028c0,0.79-0.281,1.465-0.843,2.028
		c-0.562,0.562-1.238,0.843-2.028,0.843h-34.452c-0.79,0-1.465-0.281-2.028-0.843c-0.562-0.562-0.843-1.238-0.843-2.028V27.458
		c0-0.79,0.281-1.465,0.843-2.028C232.748,24.868,233.424,24.587,234.214,24.587z"/>
	<path fill="#FFFFFF" d="M289.948,61.91l-7.142,18.339c-0.144,0.335-0.347,0.646-0.61,0.933c-0.574,0.55-1.256,0.825-2.046,0.825
		c-0.79,0-1.465-0.281-2.028-0.843c-0.562-0.562-0.843-1.238-0.843-2.028c0-0.455,0.084-0.861,0.251-1.22l19.954-51.32
		c0.144-0.431,0.395-0.825,0.754-1.184c0.55-0.55,1.22-0.825,2.01-0.825s1.471,0.275,2.046,0.825
		c0.335,0.359,0.574,0.754,0.718,1.184l19.954,51.32c0.167,0.359,0.251,0.766,0.251,1.22c0,0.79-0.281,1.465-0.843,2.028
		s-1.238,0.843-2.028,0.843c-0.79,0-1.459-0.275-2.01-0.825c-0.287-0.287-0.502-0.598-0.646-0.933l-7.142-18.339H289.948z
		 M308.322,56.168l-8.075-20.779l-8.075,20.779H308.322z"/>
	<path fill="#FFFFFF" d="M355.012,80.249L334.7,39.624v39.512c0,0.79-0.281,1.465-0.843,2.028c-0.562,0.562-1.238,0.843-2.028,0.843
		c-0.79,0-1.465-0.281-2.028-0.843c-0.562-0.562-0.843-1.238-0.843-2.028V27.458c0-0.79,0.281-1.465,0.843-2.028
		c0.562-0.562,1.238-0.843,2.028-0.843c1.148,0,1.998,0.502,2.548,1.507l23.291,46.618l23.291-46.618
		c0.55-1.005,1.4-1.507,2.548-1.507c0.79,0,1.465,0.281,2.028,0.843c0.562,0.562,0.843,1.238,0.843,2.028v51.678
		c0,0.79-0.281,1.465-0.843,2.028c-0.562,0.562-1.238,0.843-2.028,0.843s-1.465-0.281-2.028-0.843
		c-0.562-0.562-0.843-1.238-0.843-2.028V39.624l-20.492,40.984c-0.502,0.933-1.328,1.4-2.476,1.4
		C356.471,82.007,355.586,81.421,355.012,80.249z"/>
	<path fill="#FFFFFF" d="M398.364,48.309c-2.56-3.015-3.684-6.508-3.373-10.479c0.335-3.948,2.01-7.201,5.024-9.761
		c2.704-2.321,5.814-3.481,9.331-3.481c4.163,0,7.8,1.711,10.91,5.132c0.526,0.622,0.993,1.268,1.4,1.938
		c0.287,0.455,0.431,0.969,0.431,1.543c0,0.79-0.281,1.465-0.843,2.028c-0.562,0.562-1.238,0.843-2.028,0.843
		c-0.909,0-1.579-0.287-2.01-0.861c-0.431-0.574-0.873-1.16-1.328-1.758c-1.555-1.818-3.505-2.823-5.85-3.015
		c-2.369-0.191-4.462,0.484-6.28,2.028c-1.818,1.543-2.823,3.487-3.015,5.832c-0.191,2.369,0.49,4.462,2.046,6.28
		c1.268,1.22,3.326,2.201,6.173,2.943c5,1.101,8.804,3.134,11.412,6.101c2.704,3.206,4.055,6.843,4.055,10.91
		c0,0.55-0.024,1.101-0.072,1.651c-0.383,4.737-2.381,8.637-5.993,11.699c-3.23,2.751-6.902,4.127-11.018,4.127
		c-5.144,0-9.57-2.034-13.279-6.101c-0.502-0.55-0.957-1.136-1.364-1.758c-0.383-0.502-0.574-1.077-0.574-1.723
		c0-0.79,0.281-1.465,0.843-2.028c0.562-0.562,1.238-0.843,2.028-0.843c1.029,0,1.842,0.443,2.44,1.328
		c0.287,0.455,0.622,0.885,1.005,1.292c2.034,2.44,4.641,3.792,7.824,4.055c3.158,0.239,5.945-0.664,8.362-2.71
		s3.756-4.647,4.019-7.806c0.263-3.182-0.622-5.981-2.656-8.398c-1.77-1.986-4.534-3.469-8.29-4.45
		C404.059,52.22,400.948,50.701,398.364,48.309z"/>
</g>
</svg>
