<?xml version="1.0" encoding="utf-8"?>
<!-- Generator: Adobe Illustrator 17.0.0, SVG Export Plug-In . SVG Version: 6.00 Build 0)  -->
<!DOCTYPE svg PUBLIC "-//W3C//DTD SVG 1.1//EN" "http://www.w3.org/Graphics/SVG/1.1/DTD/svg11.dtd">
<svg version="1.1" id="Layer_1" xmlns="http://www.w3.org/2000/svg" xmlns:xlink="http://www.w3.org/1999/xlink" x="0px" y="0px"
	 width="428.951px" height="106.594px" viewBox="78.155 -0.096 428.951 106.594"
	 enable-background="new 78.155 -0.096 428.951 106.594" xml:space="preserve">
<g>
	<path fill="#FFFFFF" d="M90.469,106.499c-1.545-1.092-2.978-2.545-4.296-4.363c-1.181-1.547-2.326-3.557-3.444-6.034
		c-1.11-2.479-1.962-5.535-2.557-9.17c-0.315-1.818-0.586-4.341-0.817-7.567c-0.226-3.227-0.431-6.875-0.612-10.941
		c-0.182-4.068-0.32-8.431-0.408-13.091c-0.093-4.658-0.151-9.305-0.169-13.941c-0.027-4.636,0-9.134,0.067-13.497
		c0.067-4.365,0.182-8.284,0.342-11.762c0.16-3.475,0.364-6.385,0.612-8.726c0.249-2.339,0.555-3.806,0.919-4.396
		c0.728-1.183,1.647-2.046,2.765-2.592c1.11-0.544,2.201-0.657,3.267-0.34c1.07,0.317,2.024,1.103,2.867,2.352
		c0.839,1.249,1.327,3.056,1.465,5.419c0.089,1.183,0.08,3.16-0.036,5.932c-0.115,2.772-0.262,6.101-0.444,9.986
		c-0.178,3.886-0.382,8.18-0.612,12.885c-0.226,4.705-0.444,9.602-0.648,14.691c-0.204,5.091-0.337,10.239-0.408,15.441
		c-0.071,5.204-0.058,10.226,0.036,15.066c0.089,4.842,0.306,9.374,0.648,13.601C89.341,99.681,89.83,103.363,90.469,106.499z"/>
	<path fill="#FFFFFF" d="M143.507,54.55c0.275-0.408,0.546-0.635,0.817-0.681c0.275-0.044,0.488,0.022,0.648,0.204
		c0.16,0.182,0.262,0.408,0.311,0.681c0.044,0.273,0,0.502-0.142,0.681c-0.089,0.138-0.462,0.535-1.123,1.194
		c-0.661,0.659-1.531,1.431-2.623,2.319c-1.092,0.885-2.352,1.829-3.781,2.827c-1.438,1.001-2.969,1.922-4.607,2.763
		c-1.633,0.841-3.338,1.533-5.113,2.079c-1.771,0.544-3.542,0.817-5.317,0.817c-2.681,0-4.989-0.546-6.915-1.636
		c-1.935-1.092-3.524-2.454-4.776-4.09c-1.252-1.638-2.184-3.431-2.796-5.386s-0.919-3.795-0.919-5.524
		c0-1.771,0.342-3.679,1.025-5.726c0.679-2.046,1.691-3.941,3.031-5.692c1.34-1.749,3.009-3.205,5.011-4.363
		c1.997-1.158,4.296-1.74,6.888-1.74c1.451,0,2.778,0.229,3.986,0.684c1.203,0.455,2.259,1.056,3.169,1.806
		c0.91,0.75,1.624,1.602,2.148,2.557s0.826,1.931,0.923,2.932c0.133,1.454-0.036,2.863-0.515,4.225
		c-0.479,1.365-1.305,2.297-2.485,2.796c-0.506,0.317-1.092,0.477-1.775,0.477c-1.047,0-1.935-0.353-2.659-1.056
		c-0.728-0.706-1.087-1.58-1.087-2.625s0.36-1.931,1.087-2.659c0.723-0.726,1.611-1.092,2.659-1.092c0.91,0,1.727,0.32,2.454,0.954
		c-0.049-0.453-0.16-1.065-0.342-1.84c-0.182-0.772-0.524-1.533-1.021-2.284c-0.502-0.75-1.225-1.409-2.184-1.977
		c-0.95-0.568-2.228-0.852-3.817-0.852c-1.545,0-2.796,0.67-3.746,2.011c-0.959,1.343-1.607,3.025-1.944,5.046
		c-0.342,2.022-0.377,4.214-0.107,6.578c0.275,2.363,0.852,4.556,1.74,6.58c0.888,2.022,2.104,3.704,3.648,5.044
		c1.545,1.34,3.431,2.011,5.659,2.011c1.318,0,2.747-0.273,4.292-0.819c1.323-0.499,2.867-1.283,4.638-2.35
		C139.619,58.358,141.506,56.731,143.507,54.55z"/>
	<path fill="#FFFFFF" d="M167.71,42.961c-0.271,1.136-0.83,2.375-1.673,3.715c-0.839,1.34-1.802,2.67-2.894,3.988
		c-1.092,1.318-2.241,2.59-3.444,3.817c-1.207,1.227-2.281,2.297-3.24,3.205c0.91,1.456,2.033,2.636,3.373,3.546
		c1.34,0.91,2.92,1.363,4.74,1.363c1.318,0,2.752-0.273,4.296-0.819c1.318-0.499,2.863-1.283,4.634-2.35
		c1.775-1.067,3.657-2.694,5.663-4.876c0.266-0.408,0.541-0.635,0.817-0.681c0.271-0.044,0.488,0.022,0.648,0.204
		c0.16,0.182,0.257,0.408,0.302,0.681s0,0.502-0.133,0.681c-0.089,0.138-0.466,0.535-1.127,1.194
		c-0.657,0.659-1.531,1.431-2.623,2.319c-1.087,0.885-2.352,1.829-3.786,2.827c-1.429,1.001-2.965,1.922-4.598,2.763
		c-1.638,0.841-3.342,1.533-5.113,2.079c-1.775,0.544-3.546,0.817-5.317,0.817c-2.681,0-4.989-0.546-6.924-1.636
		c-1.926-1.092-3.52-2.454-4.767-4.09c-1.252-1.638-2.184-3.431-2.796-5.386c-0.612-1.955-0.923-3.795-0.923-5.524
		c0-1.771,0.342-3.679,1.025-5.726c0.679-2.046,1.691-3.941,3.031-5.692c1.34-1.749,3.009-3.205,5.015-4.363
		c1.997-1.158,4.292-1.74,6.879-1.74c2.095,0,3.773,0.308,5.051,0.921c1.269,0.615,2.224,1.398,2.858,2.352
		c0.639,0.954,1.012,1.999,1.127,3.136C167.927,40.824,167.892,41.916,167.71,42.961z M159.53,35.256
		c-1.545,0-2.809,0.695-3.786,2.079c-0.976,1.387-1.647,3.102-2.011,5.149c-0.364,2.044-0.408,4.261-0.133,6.646
		c0.266,2.386,0.861,4.6,1.766,6.646c0.959-0.819,2.002-1.76,3.138-2.829c1.136-1.067,2.206-2.181,3.204-3.34
		c0.999-1.158,1.877-2.319,2.623-3.477c0.755-1.158,1.198-2.237,1.332-3.238c0.226-1.409,0.204-2.601-0.071-3.58
		c-0.271-0.976-0.701-1.76-1.292-2.352c-0.59-0.59-1.309-1.021-2.148-1.294S160.435,35.256,159.53,35.256z"/>
	<path fill="#FFFFFF" d="M238.542,3.693c2.725,0,5.566,0.535,8.522,1.602c2.956,1.067,5.797,2.568,8.522,4.498
		c2.725,1.933,5.273,4.239,7.634,6.919c2.361,2.683,4.319,5.615,5.863,8.795c1.545,3.182,2.592,6.558,3.138,10.124
		c0.541,3.568,0.382,7.239-0.479,11.012c-0.861,3.773-2.53,7.565-5.007,11.384c-2.481,3.817-5.947,7.545-10.399,11.18
		c-2.863,2.363-5.81,4.17-8.828,5.419c-3.027,1.249-6.058,2.079-9.103,2.488c-3.045,0.411-6.058,0.455-9.032,0.138
		c-2.978-0.32-5.876-0.863-8.69-1.636c-0.044,0.544-0.204,0.976-0.479,1.294s-0.604,0.466-0.985,0.444
		c-0.391-0.024-0.799-0.262-1.229-0.717c-0.431-0.455-0.786-1.205-1.056-2.248c-3.635-1.274-6.999-2.752-10.088-4.432
		c-3.089-1.682-5.774-3.295-8.047-4.84c-2.681-1.818-5.091-3.659-7.226-5.524c0-0.499,0.093-0.885,0.271-1.158
		c0.138-0.226,0.364-0.34,0.684-0.34s0.794,0.249,1.429,0.748c0.408,0.366,1.216,1.07,2.423,2.115
		c1.203,1.045,2.761,2.215,4.669,3.511c1.908,1.296,4.159,2.625,6.746,3.988c2.592,1.363,5.504,2.568,8.726,3.613
		c-0.133-1.409-0.213-3.58-0.235-6.511c-0.022-2.932-0.022-6.271,0-10.02c0.022-3.75,0.067-7.716,0.138-11.897
		c0.067-4.181,0.133-8.215,0.204-12.101c0.067-3.886,0.133-7.441,0.204-10.67c0.067-3.227,0.124-5.748,0.169-7.567
		c-4.634,0-9.463,0.08-14.487,0.24c-5.02,0.16-10.262,0.24-15.712,0.24c-1.411,0-2.867-0.215-4.367-0.648
		c-1.5-0.433-2.938-0.976-4.323-1.638c-1.389-0.657-2.636-1.396-3.755-2.215c-1.11-0.819-2.006-1.613-2.69-2.386
		c-0.684-0.772-1.065-1.467-1.163-2.079c-0.089-0.615,0.204-1.056,0.888-1.329c0.502-0.182,1.855-0.331,4.057-0.444
		c2.206-0.113,4.922-0.193,8.149-0.237c3.227-0.047,6.826-0.047,10.803,0c3.977,0.044,8.011,0.091,12.099,0.135
		C216.044,3.124,226.727,3.375,238.542,3.693z M234.521,74.933c3.861,0,7.403-0.897,10.634-2.692
		c3.227-1.795,6.018-4.148,8.384-7.057c2.366-2.907,4.261-6.192,5.694-9.851c1.429-3.657,2.29-7.35,2.592-11.078
		c0.293-3.726-0.027-7.303-0.959-10.736c-0.932-3.431-2.557-6.374-4.873-8.828c-2.09-2.181-4.421-3.988-6.986-5.421
		c-2.57-1.431-5.344-2.565-8.318-3.409c-2.978-0.839-6.16-1.44-9.542-1.806c-3.391-0.362-6.946-0.59-10.67-0.681
		c0,1.955-0.013,4.591-0.036,7.909c-0.027,3.318-0.044,6.964-0.071,10.941c-0.022,3.979-0.044,8.091-0.067,12.341
		c-0.022,4.25-0.031,8.271-0.031,12.066s0.009,7.159,0.031,10.091c0.022,2.932,0.08,5.077,0.173,6.442
		c2.13,0.544,4.358,0.976,6.68,1.294C229.474,74.773,231.929,74.933,234.521,74.933z"/>
	<path fill="#FFFFFF" d="M328.188,54.55c0.639,0,0.959,0.32,0.959,0.954c0,0.047-0.204,0.364-0.612,0.954
		c-0.413,0.593-0.994,1.329-1.74,2.217c-0.755,0.885-1.638,1.84-2.663,2.863c-1.021,1.023-2.166,1.966-3.44,2.829
		c-1.274,0.863-2.623,1.591-4.057,2.181c-1.434,0.59-2.92,0.885-4.465,0.885c-2.41,0-4.398-0.579-5.965-1.738
		s-2.827-2.636-3.786-4.432c-0.95-1.795-1.669-3.773-2.148-5.932c-0.475-2.157-0.852-4.214-1.123-6.169
		c-0.271-1.953-0.51-3.682-0.715-5.182c-0.204-1.498-0.488-2.499-0.852-2.998c-0.275-0.364-0.684-0.648-1.225-0.852
		c-0.55-0.204-1.136-0.364-1.775-0.477s-1.26-0.215-1.873-0.306c-0.612-0.091-1.15-0.206-1.607-0.342
		c-0.271,0-0.541-0.069-0.817-0.204c-0.226,1.09-0.67,2.466-1.327,4.123c-0.661,1.66-1.434,3.364-2.321,5.113
		c-0.883,1.751-1.815,3.444-2.792,5.08c-0.981,1.636-1.9,3-2.765,4.09c-0.266,0.32-0.555,0.524-0.852,0.615
		c-0.293,0.091-0.533,0.067-0.71-0.069c-0.186-0.138-0.284-0.364-0.311-0.681c-0.018-0.317,0.124-0.706,0.444-1.161
		c1.909-2.725,3.431-5.1,4.572-7.124c1.132-2.022,2.019-3.748,2.654-5.18c0.639-1.434,1.07-2.568,1.296-3.409
		c0.231-0.841,0.386-1.442,0.479-1.809c-0.684-0.226-1.332-0.431-1.944-0.612c-0.612-0.182-1.034-0.386-1.26-0.615
		c-1.274-0.726-1.909-1.862-1.909-3.409c0-1.09,0.373-2.022,1.123-2.794s1.673-1.158,2.761-1.158c0.999,0,1.864,0.317,2.592,0.954
		c0.723,0.637,1.158,1.409,1.292,2.317c0.049,0.229,0.093,0.433,0.142,0.615c0.044,0.408,0.044,0.885,0,1.431
		c0.95,0.273,2.237,0.466,3.853,0.579c1.607,0.113,3.222,0.229,4.838,0.342c1.611,0.113,3.08,0.284,4.394,0.51
		c1.323,0.229,2.184,0.612,2.592,1.158c0.408,0.593,0.786,1.602,1.127,3.034c0.337,1.431,0.666,3.034,0.985,4.807
		c0.32,1.773,0.684,3.602,1.092,5.488s0.91,3.613,1.5,5.182c0.59,1.567,1.305,2.863,2.148,3.886s1.873,1.533,3.102,1.533
		c0.91,0,1.842-0.193,2.792-0.579c0.959-0.386,1.82-0.83,2.592-1.329c0.91-0.546,1.793-1.183,2.663-1.909l2.042-2.659
		c0.089-0.182,0.24-0.331,0.444-0.444S328.011,54.55,328.188,54.55z"/>
	<path fill="#FFFFFF" d="M351.507,42.961c-0.275,1.136-0.83,2.375-1.669,3.715c-0.843,1.34-1.811,2.67-2.903,3.988
		c-1.087,1.318-2.237,2.59-3.44,3.817s-2.286,2.297-3.236,3.205c0.905,1.456,2.033,2.636,3.373,3.546
		c1.34,0.91,2.92,1.363,4.736,1.363c1.318,0,2.747-0.273,4.296-0.819c1.318-0.499,2.863-1.283,4.638-2.35
		c1.771-1.067,3.657-2.694,5.654-4.876c0.275-0.408,0.546-0.635,0.817-0.681c0.275-0.044,0.488,0.022,0.648,0.204
		c0.16,0.182,0.266,0.408,0.311,0.681c0.044,0.273,0,0.502-0.138,0.681c-0.093,0.138-0.466,0.535-1.123,1.194
		c-0.661,0.659-1.536,1.431-2.628,2.319c-1.092,0.885-2.352,1.829-3.781,2.827c-1.434,1.001-2.965,1.922-4.603,2.763
		c-1.638,0.841-3.342,1.533-5.113,2.079c-1.771,0.544-3.546,0.817-5.317,0.817c-2.685,0-4.989-0.546-6.919-1.636
		c-1.935-1.092-3.524-2.454-4.776-4.09c-1.247-1.638-2.179-3.431-2.792-5.386c-0.617-1.955-0.919-3.795-0.919-5.524
		c0-1.771,0.337-3.679,1.021-5.726s1.691-3.941,3.036-5.692c1.336-1.749,3.009-3.205,5.006-4.363c2.002-1.158,4.296-1.74,6.888-1.74
		c2.086,0,3.773,0.308,5.042,0.921c1.274,0.615,2.228,1.398,2.867,2.352c0.63,0.954,1.008,1.999,1.123,3.136
		C351.72,40.824,351.685,41.916,351.507,42.961z M343.323,35.256c-1.545,0-2.805,0.695-3.781,2.079
		c-0.976,1.387-1.647,3.102-2.011,5.149c-0.364,2.044-0.408,4.261-0.138,6.646c0.275,2.386,0.861,4.6,1.775,6.646
		c0.95-0.819,1.997-1.76,3.134-2.829c1.136-1.067,2.206-2.181,3.204-3.34c0.999-1.158,1.873-2.319,2.628-3.477
		c0.746-1.158,1.19-2.237,1.327-3.238c0.226-1.409,0.204-2.601-0.067-3.58c-0.275-0.976-0.706-1.76-1.296-2.352
		c-0.595-0.59-1.305-1.021-2.148-1.294S344.237,35.256,343.323,35.256z"/>
	<path fill="#FFFFFF" d="M412.384,54.55c0.639,0,0.959,0.32,0.959,0.954c0,0.047-0.186,0.364-0.55,0.954
		c-0.364,0.593-0.883,1.329-1.567,2.217c-0.679,0.885-1.513,1.84-2.49,2.863c-0.976,1.023-2.055,1.966-3.236,2.829
		c-1.185,0.863-2.477,1.591-3.884,2.181c-1.411,0.59-2.889,0.885-4.434,0.885c-1.638,0-3.102-0.533-4.398-1.602
		c-1.296-1.067-2.406-2.259-3.338-3.58c-0.932-1.316-1.66-2.532-2.184-3.646c-0.524-1.114-0.808-1.738-0.852-1.875
		c-0.089,0.138-0.466,0.761-1.123,1.875c-0.661,1.114-1.558,2.33-2.694,3.646c-1.136,1.32-2.477,2.512-4.021,3.58
		c-1.545,1.07-3.249,1.602-5.113,1.602c-2.002,0-3.737-0.397-5.215-1.192c-1.478-0.797-2.659-1.875-3.546-3.24
		c-0.888-1.363-1.478-2.94-1.775-4.738c-0.293-1.793-0.271-3.682,0.071-5.657c0.342-1.977,1.012-3.977,2.011-6.001
		c0.999-2.022,2.339-3.963,4.026-5.828c1.815-1.999,3.71-3.5,5.69-4.501c1.98-0.999,3.919-1.68,5.828-2.044
		c1.727-0.32,3.351-0.422,4.878-0.308c1.518,0.115,2.827,0.331,3.915,0.648c1.092,0.32,1.913,0.695,2.459,1.125
		c0.542,0.433,0.701,0.808,0.475,1.125c-0.271,0.364-0.546,0.524-0.817,0.477c-0.271-0.044-0.648-0.171-1.123-0.375
		c-0.479-0.204-1.118-0.419-1.908-0.648c-0.799-0.226-1.877-0.34-3.24-0.34c-1.274,0-2.557,0.284-3.853,0.852
		c-1.296,0.568-2.521,1.34-3.684,2.317c-1.154,0.979-2.193,2.126-3.098,3.442c-0.914,1.32-1.571,2.705-1.98,4.159
		c-0.639,2.181-0.861,4.103-0.684,5.761c0.186,1.66,0.604,3.069,1.26,4.228c0.661,1.158,1.456,2.035,2.388,2.623
		c0.932,0.593,1.811,0.888,2.628,0.888c1.5,0,2.747-0.455,3.746-1.365c1.003-0.908,1.829-2.033,2.49-3.373
		c0.661-1.34,1.194-2.796,1.602-4.363c0.408-1.569,0.781-3.023,1.127-4.363c0.337-1.34,0.692-2.454,1.056-3.342
		c0.364-0.885,0.839-1.329,1.429-1.329c0.59,0,1.158,0.49,1.704,1.467c0.546,0.976,1.101,2.181,1.669,3.613
		c0.568,1.431,1.172,3,1.811,4.705c0.635,1.704,1.349,3.271,2.148,4.702c0.79,1.431,1.678,2.636,2.654,3.613
		c0.976,0.979,2.082,1.467,3.311,1.467c0.905,0,1.749-0.193,2.521-0.579s1.451-0.83,2.042-1.329
		c0.639-0.546,1.229-1.183,1.775-1.909l2.113-2.659C411.545,54.754,411.887,54.55,412.384,54.55z"/>
	<path fill="#FFFFFF" d="M409.18,46.37c-0.271-2.499-0.155-4.749,0.346-6.751c0.226-0.861,0.542-1.704,0.95-2.521
		c0.408-0.819,0.976-1.545,1.704-2.181c0.728-0.637,1.607-1.147,2.628-1.533c1.021-0.386,2.259-0.581,3.715-0.581
		c1.953,0,3.204,0.546,3.75,1.638c0.541,1.09,0.666,2.477,0.373,4.159s-0.905,3.544-1.837,5.59c-0.932,2.044-1.935,3.999-3,5.863
		c-1.07,1.864-2.082,3.533-3.036,5.009c-0.954,1.478-1.616,2.49-1.98,3.036c-0.266-0.091-0.439-0.215-0.506-0.375
		c-0.071-0.16-0.115-0.331-0.138-0.513c-0.022-0.18-0.067-0.375-0.138-0.579s-0.195-0.397-0.373-0.579
		c0.586-0.637,1.349-1.613,2.281-2.932c0.932-1.318,1.864-2.783,2.796-4.396c0.932-1.613,1.775-3.273,2.521-4.978
		c0.75-1.704,1.274-3.249,1.571-4.636c0.293-1.385,0.271-2.523-0.071-3.409c-0.337-0.885-1.145-1.329-2.419-1.329
		c-1.274,0-2.024,0.59-2.25,1.773c-0.231,1.181-0.124,2.647,0.306,4.396c0.431,1.751,1.114,3.648,2.046,5.692
		c0.932,2.046,1.917,3.943,2.965,5.692c1.047,1.751,2.046,3.216,3,4.398s1.704,1.773,2.25,1.773c0.546,0,1.101-0.626,1.669-1.875
		c0.568-1.249,1.167-2.807,1.806-4.671c0.639-1.862,1.296-3.886,1.979-6.067c0.679-2.181,1.385-4.203,2.113-6.067
		c0.728-1.862,1.487-3.42,2.281-4.669c0.799-1.249,1.624-1.875,2.49-1.875h0.067c0.089,0,0.182,0.011,0.275,0.033
		c0.089,0.024,0.178,0.036,0.271,0.036c0.91,0.229,1.74,0.932,2.49,2.113c0.75,1.183,1.442,2.603,2.077,4.261
		c0.639,1.66,1.229,3.444,1.775,5.353c0.541,1.909,1.092,3.748,1.633,5.521c0.728,2.181,1.447,4.034,2.148,5.557
		c0.706,1.522,1.442,2.306,2.219,2.352h0.133c0.453-0.091,0.923-0.557,1.398-1.398s0.919-1.762,1.327-2.761
		c0.502-1.136,0.959-2.41,1.367-3.819l0.684-2.386c0.497-1.727,1.008-3.477,1.531-5.248c0.519-1.773,1.079-3.375,1.669-4.807
		c0.59-1.431,1.238-2.59,1.944-3.477c0.706-0.885,1.465-1.329,2.286-1.329c0.994,0,1.846,0.717,2.557,2.148
		c0.701,1.431,1.34,3.205,1.909,5.317c0.568,2.113,1.123,4.421,1.669,6.919c0.546,2.501,1.145,4.807,1.806,6.919
		c0.661,2.113,1.42,3.886,2.286,5.317c0.861,1.431,1.909,2.148,3.134,2.148c0.91,0,1.749-0.193,2.521-0.579s1.456-0.83,2.046-1.329
		c0.635-0.546,1.229-1.183,1.771-1.909l2.051-2.659c0.089-0.182,0.235-0.331,0.439-0.444c0.209-0.113,0.422-0.171,0.648-0.171
		c0.59,0,0.888,0.32,0.888,0.954c0,0.047-0.182,0.364-0.546,0.954c-0.364,0.593-0.888,1.329-1.571,2.217
		c-0.679,0.885-1.5,1.84-2.45,2.863c-0.959,1.023-2.033,1.966-3.24,2.829c-1.207,0.863-2.499,1.591-3.888,2.181
		c-1.385,0.59-2.849,0.885-4.394,0.885c-1.682,0-3.116-0.499-4.296-1.5c-1.181-0.999-2.184-2.237-3-3.715
		c-0.817-1.476-1.474-3.089-1.975-4.84c-0.502-1.749-0.919-3.362-1.265-4.84c-0.337-1.476-0.621-2.716-0.852-3.715
		c-0.222-1.001-0.475-1.5-0.746-1.5c-0.275,0-0.604,0.499-0.99,1.5c-0.386,0.999-0.83,2.239-1.327,3.715
		c-0.506,1.478-1.092,3.091-1.775,4.84c-0.684,1.751-1.429,3.364-2.246,4.84c-0.821,1.478-1.74,2.716-2.765,3.715
		c-1.021,1.001-2.144,1.5-3.373,1.5h-0.617h-0.062h-0.479c-1.545,0-2.876-0.51-3.99-1.533c-1.114-1.023-2.046-2.306-2.792-3.853
		c-0.755-1.545-1.376-3.227-1.877-5.044c-0.502-1.818-0.919-3.5-1.26-5.044s-0.648-2.829-0.919-3.853
		c-0.275-1.023-0.55-1.533-0.821-1.533c-0.315,0-0.635,0.51-0.954,1.533c-0.32,1.023-0.692,2.308-1.127,3.853
		c-0.426,1.545-0.95,3.227-1.562,5.044c-0.617,1.818-1.358,3.5-2.219,5.044c-0.861,1.547-1.886,2.829-3.067,3.853
		c-1.185,1.023-2.57,1.533-4.159,1.533c-1.269,0-2.419-0.295-3.444-0.885c-1.021-0.59-1.944-1.387-2.761-2.386
		c-0.817-1.001-1.522-2.126-2.113-3.375s-1.114-2.532-1.567-3.853C410.458,53.846,409.686,50.322,409.18,46.37z"/>
	<path fill="#FFFFFF" d="M503.943,54.687c0.453,0.544,1.021,1.476,1.704,2.794c0.679,1.318,1.132,2.818,1.363,4.501
		c0.226,1.68,0.053,3.464-0.51,5.35c-0.573,1.886-1.877,3.671-3.919,5.353c-2.046,1.68-4.021,2.659-5.93,2.932
		c-1.913,0.271-3.662,0.124-5.255-0.444c-1.589-0.568-3-1.42-4.225-2.557c-1.225-1.136-2.184-2.25-2.863-3.34
		c-0.271-0.502-0.36-0.865-0.271-1.092c0.089-0.229,0.257-0.364,0.51-0.408c0.253-0.047,0.519,0,0.817,0.135
		c0.297,0.138,0.493,0.342,0.581,0.615c0.728,1.454,1.509,2.441,2.352,2.965c0.839,0.522,1.642,0.794,2.419,0.819
		c0.772,0.022,1.442-0.102,2.011-0.375c0.568-0.273,0.941-0.502,1.127-0.684c0.133-0.182,0.426-0.466,0.883-0.852
		s0.865-0.943,1.229-1.669c0.364-0.728,0.612-1.647,0.746-2.761c0.142-1.114-0.044-2.466-0.541-4.057
		c-0.546-1.727-1.411-3.34-2.592-4.84s-2.41-2.932-3.684-4.296l-2.113,3.205c-0.32,0.502-0.772,0.593-1.358,0.273
		c-0.506-0.408-0.595-0.863-0.275-1.363l2.388-3.613c-0.777-0.819-1.5-1.638-2.184-2.454c-0.684-0.819-1.225-1.638-1.633-2.454
		c-0.595-1.136-1.061-2.49-1.403-4.057c-0.337-1.569-0.271-3.056,0.204-4.465c0.479-1.409,1.513-2.601,3.107-3.58
		c1.589-0.976,4.066-1.467,7.43-1.467c1.815,0,3.089,0.32,3.817,0.954c0.728,0.639,1.065,1.5,1.021,2.592
		c-0.044,1.09-0.399,2.386-1.056,3.886c-0.657,1.5-1.442,3.136-2.352,4.909c0.817,0.817,1.624,1.669,2.423,2.557
		c0.79,0.885,1.562,1.762,2.317,2.623c0.746,0.865,1.438,1.671,2.077,2.421C502.945,53.493,503.486,54.141,503.943,54.687z
		 M493.855,34.371c-0.914,0-1.607,0.273-2.082,0.819c-0.475,0.544-0.728,1.26-0.75,2.146c-0.022,0.888,0.204,1.864,0.684,2.932
		c0.475,1.07,1.216,2.148,2.215,3.238c0.772-1.316,1.407-2.532,1.908-3.646c0.502-1.114,0.786-2.079,0.852-2.898
		c0.067-0.817-0.111-1.454-0.546-1.909C495.701,34.599,494.947,34.371,493.855,34.371z"/>
</g>
</svg>
